<svg xmlns="http://www.w3.org/2000/svg" viewBox="0 0 420 210" width="420" height="210">
  <title>MadeJustForYou — stacked lockup</title>
  <defs>
    
  </defs>
  <g transform="translate(150,4)">
    <path d="M60 102 C 60 102, 18 74, 18 46 C 18 30, 33 24, 46 32 C 53 36, 58 44, 60 50 C 62 44, 67 36, 74 32 C 87 24, 102 30, 102 46 C 102 74, 60 102, 60 102 Z" fill="#C15F3C"></path>
    <path d="M60 94 C 60 94, 26 70, 26 47 C 26 35, 37 31, 47 37 C 53 41, 58 47, 60 53 C 62 47, 67 41, 73 37 C 83 31, 94 35, 94 47 C 94 70, 60 94, 60 94 Z" fill="none" stroke="#FBF6EE" stroke-width="2.6" stroke-dasharray="5 5" stroke-linecap="round"></path>
  </g>
  <text x="210" y="184" text-anchor="middle" font-family="&#39;Playfair Display&#39;, Georgia, serif" font-weight="600" font-size="42" fill="#2E2822">Made<tspan font-style="italic" fill="#C15F3C">Just</tspan>ForYou</text>
</svg>