<?xml version="1.0" encoding="UTF-8"?>
<svg version="1.1" viewBox="0 0 1600 1600" width="100" height="100" xmlns="http://www.w3.org/2000/svg">
<path transform="translate(0)" d="m0 0h1600v1600h-1600z" fill="#FCFCFC"/>
<path transform="translate(1230,88)" d="m0 0h8l5 5 8 26 10 22 4 7v2l5-5 6-7 15-22 11-15 1-2 6-1 6 3-1 6-7 12-10 10-11 17-4 8-1 6h9l19-5 3-1h14l4 5-1 6-5 4-5 2-32 1-10 4-9 20-8 18-12 21-14 19-13 16-9 11-28 34-13 16-9 11-11 13-7 8-12 14-22 22-8 7-14 12-14 11-13 10-12 9-17 12-12 8-12 9-51 34-15 12-6 4 3 10 13 37 6 23 7 26 8 29 8 30 6 20 6 23 11 34 7 24 9 27 6 20 10 27 7 21 11 27 7 16 12 23 12 20 13 19 14 20 10 14 16 24 11 19 4 10 4 13 1 5v19l-6 22-8 12-11 10-16 9-25 9-21 5-49 9-58 7-49 8-32 6-114 26-45 9-37 6-17 2-16 1h-29l-24-4-17-5-16-10-7-7-6-9-4-13-4-20v-29l5-22 7-26 6-21 3-7h1l-1 9-5 21-4 22-1 7v25l4 20 4 8 7 12 9 10 8 6 11 5 16 3 7 1h21v-2l-6-2v-2l-4-1-5-3-1-7-8-8-10-14-4-13-3-17-1-27 1-33 2-22 1-9 3-20 1-2 3-19 2-12 1-5 2-9 1-11 2-9 3-32-1-68-2-29-3-24-6-56-7-43-3-16-3-22-2-28v-24l4-13 5-8 8-7 15-7 12-3 34-3h14l22 2h49l12-2 11-5 13-10 10-5 16-6 9-3 12-2h11l11 4 10 9 5 10 7 23 7 25 6 19 5 17 8 22 8 17 8 16 8 15 7 14 9 17 3 6 7 15 10 19 7 10 7 18 4 8 5 13 7 11 3 3 3 7 6 9 8 13 5 10 6 9 4 8 6 16 4 6 2 2 2 18 4 16 4 9 3 12 3 31 1 7-2 21-8 17-9 10-4 4h-2l-2 4-12 8-20 7-23 6-16 3-8 4-10 3-12 1h-21l-19 3-24 5-13 2-22 4-16 5-17 6-16 6-17 8-16 8-7 3-8 4-19 10-11 7-11 6-4 2-14 1v2l-2 2v1l-14 1-1 1 15-1 13-1 37-7 47-11 34-9 36-12 28-11 34-13 20-6 39-8 45-9 28-8 20-9 12-7 9-7 10-14 2-8v-20l-5-23-8-24-12-25-19-38-14-33-15-38-10-29-12-36-14-43-9-31-7-24-14-49-12-44-8-31-8-26-7-16-10-14-3-3-11-4-14-2h-31l-23 3-50 10-32 8v-9l2-11 6-5 29-9 30-7 34-6 23-2h12l12 2 8 4 8-1 10-6 12-9 22-16 14-10 13-9 14-10 18-12 29-19 11-7 17-12 15-13 14-14 8-7 51-51 7-8 11-13 9-10 9-11 11-13 10-13 12-17 13-24 8-16 6-17 2-3-4-2-13-30-6-15-7-21v-8z" fill="#FAA3C0"/>
<path transform="translate(1230,88)" d="m0 0h8l5 5 8 26 10 22 4 7v2l5-5 6-7 15-22 11-15 1-2 6-1 6 3-1 6-7 12-10 10-11 17-4 8-1 6h9l19-5 3-1h14l4 5-1 6-5 4-5 2-32 1-10 4-9 20-8 18-12 21-14 19-13 16-9 11-28 34-13 16-9 11-11 13-7 8-12 14-22 22-8 7-14 12-14 11-13 10-12 9-17 12-12 8-12 9-51 34-15 12-6 4 3 10 13 37 6 23 7 26 8 29 8 30 6 20 6 23 11 34 7 24 9 27 6 20 10 27 7 21 11 27 7 16 12 23 12 20 13 19 14 20 10 14 16 24 11 19 4 10 4 13 1 5v19l-6 22-8 12-11 10-16 9-25 9-21 5-49 9-58 7-49 8-32 6-114 26-45 9-37 6-17 2-16 1h-29l-24-4-17-5-16-10-7-7-6-9-4-13-4-20v-29l5-22 7-26 6-21 3-7h1l-1 9-5 21-4 22-1 7v25l4 20 4 8 7 12 9 10 8 6 11 5 16 3 7 1h38l34-4 37-7 47-11 34-9 36-12 28-11 34-13 20-6 39-8 45-9 28-8 20-9 12-7 9-7 10-14 2-8v-20l-5-23-8-24-12-25-19-38-14-33-15-38-10-29-12-36-14-43-9-31-7-24-14-49-12-44-8-31-8-26-7-16-10-14-3-3-11-4-14-2h-31l-23 3-50 10-32 8v-9l2-11 6-5 29-9 30-7 34-6 23-2h12l12 2 8 4 8-1 10-6 12-9 22-16 14-10 13-9 14-10 18-12 29-19 11-7 17-12 15-13 14-14 8-7 51-51 7-8 11-13 9-10 9-11 11-13 10-13 12-17 13-24 8-16 6-17 2-3-4-2-13-30-6-15-7-21v-8z" fill="#0C090B"/>
<path transform="translate(247,1113)" d="m0 0h13l10 4 6 4 8 9 5 11 5 15 1 8-6 15-3 19 4 8 14 15 12 13 8 8 8 7 15 13 14 11 16 12 35 23 18 11 29 16 18 10 33 17 21 10 16 8 23 11 24 10 11 5 25 10 19 9 18 8 23 11 3 1-2-5-8-19-14-34-7-20-9-29-7-26-1-8 4-5 6-2h21l15 57 14 42 14 33 11 26 3 9v3l-6-1-23-10-11-5-20-7-28-11-31-13-30-13-25-11-37-16-34-16-28-13-23-11-16-8-35-18-17-10-19-12-29-20-16-12-11-9-6-5-9-11-6-9-5-5-4 1-7 8-19 14-13 9-20 11-25 10-29 9-5 1h-14l-7-6-5-10-2-7v-15l5-19 9-25 8-16 7-11 9-10 4-5 14-11 16-12 20-12 17-7 14-4z" fill="#0C090B"/>
<path transform="translate(1433,829)" d="m0 0h21l18 3 22 6 19 8 19 10 13 10 21 21 11 15 7 14 2 7v13l-3 6-8 7-11 4-21 3h-38l-24-2-20-4-15-4-14-1-10 30-8 15-10 18-11 17-9 13-9 12-9 11-10 13-11 13-13 15-24 26-13 15-11 12-15 15-7 8-28 28-7 8-19 19-2 3h-2l-2 4-36 36-8 7-8 8-8 7-15 14-7 8-6 7-15 11-7 4h-2l1-15 1-14 1-31v-36l-1-8 2-14 3-5 10-4 14-3h4v11l-1 7-2 47v28l10-7 20-20 7-8 23-23 6-5 5-6 7-6 7-8 8-8 7-8 9-9 7-8 18-20 7-8 13-14 9-11 12-14 9-11 26-36 10-14 8-12 11-17 12-19 8-15 9-20 11-27 5-13v-11l-10-17-5-8-9-26v-10l4-10 6-10 11-8 14-6z" fill="#0C090B"/>
<path transform="translate(600,555)" d="m0 0h10l6 3 4 5 2 9-2 8-7 2-11-2h-12l-8 6h-2v-4l-4 2-3 7 1 31 3 34 7 51 14 84 3 27 1 23v20l-2 23-3 12-3 14-5 1 1-8 1-5v-25l-4-45-4-32-9-53-4-25-5-42-2-34v-11l-8 4-4 1v2h-2l-1 3-9 7h-2l-2 4-15 14-9 11-9 13-8 10-4 3-11-1-4-2v-9l4-14 2-18-4 4-19 9-21 9-39 15-40 13-25 6-37 6-36 4-67 6-16 1h-43l-32-4-9 16-6 7-9 6-6 2h-7l1-7 12-14 5-7 2-6v-8l-12 1-28 4-5 2-4-5-1-5 5-6 7-2h28l14-1 2-1-2-9-8-10-11-14-8-11-2-5v-3l9 1 8 6 10 13 13 19 8 11 5 4 3 3 8 2 12 2 11 1h32l35-3 41-6 42-8 39-9 25-7 26-9 31-13 42-17 28-11 8-5 14-15 17-16 10-10 8-6 7-5 2 1v5h13l4-4 5-12 3-3 12-4z" fill="#0C090B"/>
<path transform="translate(600,555)" d="m0 0h10l6 3 4 5 2 9-2 8-7 2-11-2h-12l-8 6h-2v-4l-4 2-3 7 1 31 3 34 7 51 14 84 3 27 1 23v20l-2 23-3 12-3 14-5 1 1-8 1-5v-25l-4-45-4-32-9-53-4-25-5-42-2-34v-11l-8 4-4 1v2h-2l-1 3-9 7h-2l-2 4-15 14-9 11-9 13-8 10-4 3-11-1-4-2v-9l4-14 2-18-5 4 2-4 6-11 6-9 12-20 14-14 8-7 13-13 8-6 7-5 2 1v5h13l4-4 5-12 3-3 12-4z" fill="#FEB9CE"/>
<path transform="translate(917,701)" d="m0 0 4 5 4 9 7 14 18 34 7 14 7 15 10 19 7 10 7 18 4 8 5 13 7 11 3 3 3 7 6 9 8 13 5 10 6 9 4 8 6 16 4 6 2 2 2 18 4 16 4 9 3 12 3 31 1 7-2 21-8 17-9 10-4 4h-2l-2 4-12 8-20 7-23 6-16 3-8 4-10 3-12 1h-21l-19 3-24 5-13 2-22 4-16 5-17 6-16 6-17 8-16 8-7 3-8 4-19 10-11 7-11 6-4 2-14 1v2l-2 2v1l-14 1-1 1 15-1-2 2-19 2h-17v-3l-6-2v-2l-4-1-5-3-1-7-8-8-10-14-4-13-3-17-1-27 1-33 1-11h1v67l4 24 8 16h2l2 3 9 4v2l12 2 10 2h11l10-2 2 1 1-2 11-1 6-2 14-5 21-7 18-8 13-5 9-3 12-5h2l1-2 9-4 4-3 6-1 11-5 12-4h3l1-2 5-2 5-1 7-2 4-2h6l4-2 9 1 1-2 3-2h10l3 1v-2l9-1 5-2h11l5-1 11-2h7l1-1h6 3l11 1v-2h13v-2l10-1 8-1 1-2 4-1 2-1 5-1v-2l10-1 2-2 3-2 10-5 5-2 4-1 2-4v-1-3l6-2h2l-1-3h2l4-4 1-4 2-3h2l1-3 2-8 2-1 3-12-1-10-2-13h-2l-8-20-2-7-2-11-3-4-3-8-2-5-3-8v-3l-3-1-3-7-4-5-1-4h-2l-3-6v-2h-2l-4-8-4-10-3-2-7-16v-3l-2-1-3-10-3-4-7-25-3-9-5-18-3-7-1-9-7-14-8-18-6-13-9-17-12-26-11-23z" fill="#FAD0D9"/>
<path transform="translate(1468,860)" d="m0 0 28 2 20 4 16 6 10 5 10 10 7 14 1 8-3 7-6 5-11 4-23 3h-25l-17-1-26-4-22-5-8-4-4-7-1-4v-10l6-10 9-9 12-8 12-4z" fill="#E19D52"/>
<path transform="translate(228,1155)" d="m0 0h12l9 3 13 8 5 5 4 11v7l-5 7-14 8-10 7-29 16-17 8-28 10-12 3-9 1-4-4-3-8v-22l2-14 4-6 14-13 20-12 12-6 15-5z" fill="#E19D52"/>
<path transform="translate(600,555)" d="m0 0h10l6 3 4 5 2 9-2 8-7 2-11-2h-12l-8 6h-2v-4l-4 2-3 7 1 31 3 34 7 51 14 84 3 27 1 23v20l-2 23-3 12-3 14-5 1 1-8 1-5v-25l-4-45-4-32-9-53-4-25-5-42-1-17v-46l4-27 6-18 4-6 9-4z" fill="#0C090B"/>
<path transform="translate(917,701)" d="m0 0 4 5 4 9 7 14 18 34 7 14 7 15 10 19 7 10 7 18 4 8 5 13 7 11 3 3 3 7 6 9 8 13 5 10 6 9 4 8 6 16 4 6 2 2 2 18 4 16 4 9 3 12 3 31 1 7-2 21-8 17-9 10-4 4h-2l-2 4-12 8-20 7-13 3-3-1 4-3 18-4v-2l5-2 13-7h2l1-3h3l1-3 8-7 3-1 1-5 3-7 2-2 2-4 2-10 2-5v-12l-2-12-4-13-3-6v-6l-4-10-3-10-4-10-4-8-6-13-4-8-8-10-2-5-2-8-1-3h-2l-6-7-4-7-5-13-8-16-10-32-7-20-1-1-3-14-4-4-12-26-5-11-9-17-12-26-11-23z" fill="#FAD0D9"/>
<path transform="translate(844,563)" d="m0 0h11l11 4 10 9 4 8-1 2-4-5-3-4-6-2v-2l-5-1 4-2v2h4l-9-5h-11l-10 2-7 1-7 4-10 3-12 5h-2l-1 2-4 4-4-1-1 3-9 6-5 1v2l-10 2-2-1-1 2-3 1h-4l-9-1h-12l-5-1-7 1h-2l-1-2-10-1-18-2h-9l-8 2h-7v-1h-2v1h-11l-7 1-5 3-11 5-7 3-5 4-6 4-4 4-6 5v3l-2 7-1 1v29l1 7 1 15 2 13 2 10 5 29 3 17 3 21 7 77 1 19v63l-1 6h-1l-1-68-2-29-3-24-6-56-7-43-3-16-3-22-2-28v-24l4-13 5-8 8-7 15-7 12-3 34-3h14l22 2h49l12-2 11-5 13-10 10-5 16-6 9-3z" fill="#FAD0D9"/>
<path transform="translate(552,574)" d="m0 0 2 1v5h13l4-2-3 13-3 2-1 12-3-1 1 6-1 5h-5l-2-4h-14l1-6 2-9-3-2-5 5-5 6-6 5-3 7-2 1v3l-5 5-1 2h-2l-1 5-1 3-3 2-3 5-7 9-4 8-2 6-3 6-2 5-3 7-2 3h-2l-1 2 1-10 2-8 1-12-5 4 2-4 6-11 6-9 12-20 14-14 8-7 13-13 8-6z" fill="#F9CFD7"/>
<path transform="translate(969,810)" d="m0 0 2 1 3 14 4 10 4 11 3 10 5 16 5 13 6 12 5 11 5 8 3 3v2h2l3 5 2 8 3 5 7 9 5 11 4 9 7 14 3 9 3 11 2 5 1 7 5 12 2 8 1 17-1 8-2 5-2 7-2 5h-2l-1 4-3 8-8 7-4 4-3 1-3 3h-2l-1 2-10 5-5 1v2l-14 4-8 3-13 1 4-2h3l1-2 4-1 2-1 5-1v-2l10-1 2-2 3-2 10-5 5-2 4-1 2-4v-1-3l6-2h2l-1-3h2l4-4 1-4 2-3h2l1-3 2-8 2-1 3-12-1-10-2-13h-2l-8-20-2-7-2-11-3-4-3-8-2-5-3-8v-3l-3-1-3-7-4-5-1-4h-2l-3-6v-2h-2l-4-8-4-10-3-2-7-16v-3l-2-1-3-10-3-4-7-25-3-9-5-18-3-7-1-9z" fill="#FFB9D0"/>
<path transform="translate(268,1179)" d="m0 0h2l1 3v7l-5 7-14 8-10 7-29 16-17 8-16 6h-6l5-5 20-12 12-7 11-6 9-6 7-3 9-6h2l1-5 5-3h2v-2l9-4z" fill="#FBF6F4"/>
<path transform="translate(661,807)" d="m0 0 4 5v12l3 6v2l6 3 1 6-4 3-1 8 2 6-3 1v10l-2 4v7l4-2h6v2h2v4l-3 3-12 1 3 14-1 10 1 4-1 6 2 2-1 5-2 7v24l-1 3-1 15 1 5-2 11-1 8v16l-5 10-2-4 3-6v-11l2-9 1-11 1-23v-24l2-9v-7l-1-5 1-13 1-4-3-11 1-21-1-3 4-13 1-2v-12l-3-2 1-7-2-5z" fill="#FFB9D0"/>
<path transform="translate(973,1120)" d="m0 0h6l1 2-6 2-21 3-22 2-19 2-19 4-10 1-28 5-16 4-9 3-15 6-14 5-15 6h-3l1-2 9-4 4-3 6-1 11-5 12-4h3l1-2 5-2 5-1 7-2 4-2h6l4-2 9 1 1-2 3-2h10l3 1v-2l9-1 5-2h11l5-1 11-2h7l1-1h6 3l11 1v-2h13v-2z" fill="#FFB9D0"/>
<path transform="translate(765,1171)" d="m0 0 2 2-12 5-9 4-12 6-17 5-10 4-4 3-9 2-19 5h-6l-9 3h-5l-7-2-10-2-10-4-8-7 1-2 10 5v2l12 2 10 2h11l10-2 2 1 1-2 11-1 6-2 14-5 21-7 18-8 13-5z" fill="#FFB9D0"/>
<path transform="translate(652,597)" d="m0 0h10l5 1v1h-11l-7 1-5 3-11 5-7 3-5 4-6 4-4 4-6 5v3l-2 7-1 1v29l1 7 1 13-2 2-2-21-1-28 2-13 6-11 3-3h2v-2l9-6 11-5 11-3z" fill="#FEB8CF"/>
<path transform="translate(560,620)" d="m0 0 3 1v10l-8 4-4 1v2h-2l-1 3-9 7h-2l-2 4-15 14-9 11-2 1 1-5h2l3-9 2-1 1-3h2l1-5 4-1 2-6 5-2 1-2 3-2 4-5 7-6h2v-2l5-3h2l1-4z" fill="#FAD0D9"/>
<path transform="translate(1062,1051)" d="m0 0 2 1-1 7-2 5-2 7-2 5h-2l-1 4-3 8-8 7-4 4-3 1-3 3h-2l-1 2-10 5-5 1v2l-14 4-8 3-13 1 4-2h3l1-2 4-1 2-1 5-1v-2l10-1 2-2 3-2 10-5 5-2 4-1 2-4v-1-3l6-2h2l-1-3h2l4-4 1-4 2-3h2l1-3 2-8 2-1 3-11z" fill="#FEB8CF"/>
<path transform="translate(264,1183)" d="m0 0 2 1-14 13-13 9-14 7-7 5-18 9v2h-2l-1 3-2 1 1 2-16 6h-6l5-5 20-12 12-7 11-6 9-6 7-3 9-6h2l1-5 5-3h2v-2z" fill="#FAD1DA"/>
<path transform="translate(611,736)" d="m0 0h1l4 23 3 21 7 77 1 19v63l-1 6h-1l-1-68-2-29-1-12v-9l-6-58-4-25z" fill="#FDC0D3"/>
<path transform="translate(845,564)" d="m0 0h13l8 3 10 9 4 8-1 2-4-5-3-4-6-2v-2l-5-1 4-2v2h4l-9-5h-11l-10 2-7 1-7 4-10 3-12 5h-2l-1 2-4 4-4-1-1 3-2 2-3-1 10-9 16-8 18-7z" fill="#FEB8CF"/>
<path transform="translate(687,785)" d="m0 0 6 2h3v-2l5 2v8h2v12l-5-2-4-4v-3l-7 1-1-7-1-4z" fill="#FEB8CF"/>
<path transform="translate(608,732)" d="m0 0h2l5 29 5 45 2 21v9l-2-1-6-60-6-38z" fill="#FAD1DA"/>
<path transform="translate(973,1120)" d="m0 0h6l1 2-6 2-21 3-22 2-19 2h-5v-1l-6-1v-1h11l5-1 11-2h7l1-1h6 3l11 1v-2h13v-2z" fill="#FFB9D0"/>
<path transform="translate(700,1242)" d="m0 0h6l-3 2-31 5-4 1-48-1-22-4v-2l13 2 14 2h29l24-2z" fill="#F2B3A1"/>
<path transform="translate(688,660)" d="m0 0h6l3 3 1 10-1 6 1 3v16l1 4-2 2-4-4 1-10-1-3 1-5-2-5 3-3-1-12-8 1-9 2-4 5-4 1v-2l3-3h2l1-3 6-2z" fill="#FFB9D0"/>
<path transform="translate(492,673)" d="m0 0 4 2-1 4-5 5-1 3h-3v3h-2v3l-3 2-2 3-2-1 1-7 3-6 3-4h2l2-4z" fill="#FAA3C0"/>
<path transform="translate(206,1220)" d="m0 0m-1 1m-2 1h2l-2 4-3 1v2h-2l-1 3-2 1 1 2-16 6h-6l5-5 20-12z" fill="#F8CFD1"/>
<path transform="translate(899,1129)" d="m0 0h10l-5 4-11 2-10 1-10 2h-8l1-2h4l1-2 3-2h10l3 1v-2l9-1z" fill="#FEB6CD"/>
<path transform="translate(605,1084)" d="m0 0h1v67l4 24 8 16-5-3-4-8-5-25-1-27 1-33z" fill="#FCC5D5"/>
<path transform="translate(845,564)" d="m0 0h13l8 3 10 9 4 8-1 2-4-5-3-4-6-2v-2l-5-1 4-2v2h4l-9-5h-11l-10 2-4-2 5-2z" fill="#FEBDD1"/>
<path transform="translate(849,566)" d="m0 0h11l9 5 1 2-6-2-11-1-14 2-10 2 2-4 4-2 9-1z" fill="#FAA7C2"/>
<path transform="translate(996,1185)" d="m0 0h10l-3 2-7 1h-7l-9 2-7 1h-7l-5 2h-14v2l-9-1v-1l49-7z" fill="#F3B5A6"/>
<path transform="translate(602,697)" d="m0 0h3l3 16 3 18v5l-1-4-3-1-4-22z" fill="#FCC6D5"/>
<path transform="translate(676,594)" d="m0 0h14l20 2 1 2h-9l-9-1h-9l-8 2h-7v-1l5-1h-12v-2z" fill="#FBC9D6"/>
<path transform="translate(693,759)" d="m0 0 6 1 1 5-1 5 1 5h2v10h-3l-1-1-2-16-5-8z" fill="#FFB9D0"/>
<path transform="translate(704,812)" d="m0 0 2 3v6l-2 7 2 4-1 6h-1l-1-5-3-3-2-6v-6h5v-5z" fill="#FFB9D0"/>
<path transform="translate(844,563)" d="m0 0h11v1l-15 2-16 4-12 5-14 7-2-1 5-4 14-6 17-6z" fill="#FAD1DA"/>
<path transform="translate(917,701)" d="m0 0 4 5 4 9 7 14 6 11-1 4-3-4-11-23-6-13z" fill="#FBCAD7"/>
<path transform="translate(721,599)" d="m0 0h21l23 1-1 2-3 1h-4l-9-1h-12l-5-1-7 1h-2z" fill="#FEB8CF"/>
<path transform="translate(700,1242)" d="m0 0h6l-3 2-31 5-4 1-8-1 2-2z" fill="#F3B6A8"/>
<path transform="translate(552,574)" d="m0 0 2 1-13 11v3l-6 2-11 12-1-3 9-9 5-6 8-6z" fill="#F1B8AE"/>
<path transform="translate(861,1135)" d="m0 0h3l1 4-26 5 3-4 9-2 4-1z" fill="#FEB8CF"/>
<path transform="translate(650,596)" d="m0 0h12v1l-24 3-13 5-6 2 4-4 14-5z" fill="#FAD1DA"/>
<path transform="translate(835,568)" d="m0 0 8 1h10v1l-14 2-10 2 2-4z" fill="#FCAEC8"/>
<path transform="translate(599,669)" d="m0 0h2l1 21h2l1 6-3 1-2-10z" fill="#FACDD8"/>
<path transform="translate(1e3 1114)" d="m0 0m-10 1h10l-1 2-8 3-13 1 4-2h3l1-2 4-1z" fill="#FFB9D0"/>
<path transform="translate(874,1205)" d="m0 0h4v2l-18 4h-8v-1z" fill="#F5BDB5"/>
<path transform="translate(655,702)" d="m0 0 4 4 1 3-1 16h-1l-1-9-1-5 1-4z" fill="#FFB9D0"/>
<path transform="translate(635,608)" d="m0 0 3 1-13 7-5 5-4 3-2-1 5-5 5-4z" fill="#FFB9D0"/>
<path transform="translate(950,1191)" d="m0 0h13l-2 2h-14v2l-9-1v-1z" fill="#F5BDB5"/>
<path transform="translate(488,646)" d="m0 0 1 3-5 8h-3l1-6z" fill="#FCF6F5"/>
<path transform="translate(721,599)" d="m0 0h17v3l-7-1-7 1h-2z" fill="#FEB5CD"/>
<path transform="translate(623,857)" d="m0 0h3v17h-2z" fill="#FCC5D5"/>
<path transform="translate(784,592)" d="m0 0 2 1-6 4h-3v2l-10 2-1-2 9-2z" fill="#FFB9D0"/>
<path transform="translate(892,1201)" d="m0 0h6l-3 2-8 2h-8l4-2z" fill="#F3B8AC"/>
<path transform="translate(699,896)" d="m0 0h2v10l-3 1-1-3 1-7z" fill="#FEB8CF"/>
<path transform="translate(873,574)" d="m0 0 5 5 2 7-5-5-3-4z" fill="#FCBDD1"/>
<path transform="translate(662,1247)" d="m0 0h17v1l-11 2-8-1z" fill="#FBC8D6"/>
<path transform="translate(653,1220)" d="m0 0 7 2-1 2h-9l-2-2z" fill="#FDFDFD"/>
<path transform="translate(677,595)" d="m0 0h11l-4 2-8 2h-7v-1l8-2z" fill="#FFB9D0"/>
<path transform="translate(87,707)" d="m0 0 6 1-1 4-5-1z" fill="#F7D3CB"/>
<path transform="translate(864,570)" d="m0 0 1 2 8 1-1 3-6-1v-2l-5-1z" fill="#FEB8CF"/>
</svg>
