<?xml version="1.0" encoding="UTF-8"?>
<svg version="1.1" viewBox="0 0 1600 1600" width="100" height="100" xmlns="http://www.w3.org/2000/svg">
<path transform="translate(0)" d="m0 0h1600v1600h-1600z" fill="#FFFFFE"/>
<path transform="translate(670,350)" d="m0 0h28l21 2 22 4 21 7 16 8 14 9 11 9 10 9 18 18 9 11 11 12 20 25 15 20 10 13 11 17 14 27 8 18 11 33 7 30 6 34 2 18v54l-3 44-7 63-5 37-5 27-6 34-7 48-2 17v39l4 23 6 18 6 10 4 5 10 7 11 4 7 2 14 2 30-1h33l14 2 17 7 6 4 3 3 1 8-4 13-6 12-10 15-13 14-17 12-16 7-19 4-10 1h-16l-14-1-23-5-21-9-16-8-12-7-10-7-13-10-13-12-11-11-11-14-10-15-12-23-10-21-9-20-13-23-9-10-14-9-11-5-9-2h-8l-12 3-18 8-12 7-14 13-8 7-9 9-7 8-8 9-9 12-11 16-6 9-9 15-7 10-11 19-8 12-11 13-15 15-13 12-17 12-21 11-21 8-20 5-22 3h-23l-28-4-13-4-11-6-13-12-10-11-7-11v-5l11-10h2v-2l10-7 7-3 12-2 15 1 36 4h11l12-3 9-5 10-9 9-12 4-10 5-21 1-9v-23l-2-22-9-61-12-68-8-42-7-38-7-40-4-30-3-33-1-21v-29l2-36 5-44 5-24 12-36 9-20 10-22 12-22 10-18 12-19 8-12 12-16 12-14 13-12 15-11 23-12 19-7 19-5 16-3z" fill="#FFFFFE"/>
<path transform="translate(666,328)" d="m0 0h38l27 3 25 6 21 8 17 9 11 8 13 11 22 22 7 8 9 10 7 8 9 10 9 11 13 14 9 11 12 14 11 15 13 20 10 18 9 19 10 30 6 25 4 27 5 54v52l3 7 7 7 11 14 11 13 9 13 9 15 10 17 12 20 10 19 10 15 4 8 6 20 16 38 8 30 2 6 3 1v2l5-1 17-11 11-7 18-12 10-7 19-14 11-9 8-6 10-9 7-6 7-8 10-14 8-16 3-10 1-10-4-13-10-19-10-14-8-13-7-13v-9l6-17 11-20 16-26 14-27 6-15 4-16 1-7v-31l-3-7-6-6-10-3-16-2-30-1-6-2-6-5-5-10-3-20-5-48-4-10-1-1h-6l-6 4-6 9-5 11-3 16v38l2 68v31l-2 34-7 51-3 15-9 27-8 20-9 16-8 16-12 19-7 10-5 5 1-7-4 5-5 1 2-7 6-10 15-30 13-38 8-42 5-32 3-29 1-28v-31l-1-51v-29l2-35 2-12 7-14 9-12 10-10 8-5 11-2 9 2 9 6 9 11 6 12 4 15 2 12 2 27 1 3 32 2 18 4 11 4 10 6 9 9 5 11 2 12v66l-1 22-3 17-8 20-8 16-10 15-7 11-3 7 5 14 12 27 4 17 1 7v28l-4 16-10 21-12 17-8 8-7 8-7 7-14 11-10 7-34 22-19 10-44 19h-2l-1 6v10l4 34 1 17v29l-3 27-5 20-5 14-13 23-10 13-12 12-20 14-16 8-18 7-17 4-10 1h-22l-26-4-19-5-22-8-27-13-16-10-17-13-18-18-11-15-9-15-7-14-10-24-14-32-9-21-11-20-11-12-10-5-10-1-12 2-12 5-14 10-10 9-8 7-12 14-10 13-8 11-10 16-10 17-10 15-9 14-12 17-22 24-11 9-9 8-13 9-11 7-19 10-20 8-20 6-15 3-22 2h-11l-20-2-16-4-20-8-11-6-12-9-12-12-7-8-14-18-12-19-7-12-9-25-5-23-1-6v-38l3-28 5-24 7-24 9-21 8-16 9-17 8-13 7-12 10-15 11-17 10-15 10-13 11-13 8-11 12-17 3-5 1-5v-10l-5-41-2-30v-25l1-29 4-42 6-40 7-28 6-16 12-25 13-23 16-24 9-12 20-25 11-14 13-15 7-7 6-7 11-9 13-11 20-13 23-12 20-7 17-4 20-3zm4 22-23 2-25 5-24 8-23 11-12 8-11 9-12 11-12 14-10 14-15 23-9 15-13 24-8 16-13 28-9 24-7 23-4 20-5 44-2 36v29l2 33 4 37 6 38 9 49 8 41 10 57 7 43 6 44 1 13v23l-2 14-6 22-6 10-12 13-10 6-9 3-5 1h-11l-44-5-14 1-10 3-12 8v2l-4 2-9 8 1 7 8 11 12 13 9 8 16 8 20 4 16 2h23l27-4 18-5 22-9 19-10 12-9 14-12 6-5 7-8 8-8 10-13 9-15 10-17 8-11 8-14 10-14 8-11 11-14 8-8 7-8 9-9 8-7 11-9 17-9 17-6 5-1h8l12 3 15 8 10 8 8 10 14 26 11 25 8 16 9 17 13 19 12 14 15 15 11 9 13 9 10 7 16 8 19 9 16 5 15 3 14 1h16l15-2 17-4 16-8 11-8 9-8 7-8 11-17 6-12 3-11-1-8-7-6-16-7-8-2-9-1h-33l-30 1-18-3-12-4-9-6-5-5-6-8-5-12-4-15-3-18v-39l5-39 9-56 5-25 5-35 7-61 3-35 1-19v-54l-3-25-7-36-7-28-9-26-8-18-11-22-10-16-10-14-14-18-10-13-18-22-10-11-9-11-23-23-14-11-17-11-21-9-17-5-25-4-14-1z" fill="#0C090B"/>
<path transform="translate(409,832)" d="m0 0 2 2 5 23 8 42 8 36 15 64 8 38 6 36 1 9v15l-2 14-4 10-4 6-8 7-10 3h-22l-15-1h-36l-10 4-8 6-6 6h-2v2l-8 7-4 4-5-1-9-10-5-11-5-27-2-20v-38l3-25 5-24 9-25 11-24 10-18 9-16 7-10 11-16 12-19 6-8 7-11 10-13 10-15z" fill="#FFFFFE"/>
<path transform="translate(978,780)" d="m0 0 5 1 8 7 12 16 8 14 9 14 12 22 11 23 9 20 11 32 6 16 9 36 5 23 5 39 2 22v26l-4 1-22-5-16-2h-25l-26 1h-16l-13-2-7-3-7-7-6-10-4-13-1-7v-42l5-40 16-85 8-41 2-16 2-30z" fill="#FFFFFE"/>
</svg>
