<?xml version="1.0" encoding="UTF-8"?>
<svg version="1.1" viewBox="0 0 1600 1600" width="100" height="100" xmlns="http://www.w3.org/2000/svg">
<path transform="translate(0)" d="m0 0h1600v1600h-1600z" fill="#FEFEFE"/>
<path transform="translate(1280,339)" d="m0 0h14l17 2 15 4 10 4 12 8 12 12 10 15 7 14 5 15 3 13v28l-5 25-7 23-11 23-13 23-15 26-8 13-23 34-8 12-10 13-17 26-10 18-10 19-11 23-16 40-13 38-13 49-13 51-11 33-11 28-8 16-6 11-12 19-11 15-10 11-7 8-11 9-8 9-8 7-12 12-18 13-18 10-16 9-14 8-8 7 1 7 9 14 8 10 11 11 14 10 14 11 5 8 2 8v10l-3 10-9 10-10 8-12 7-9 3-9 1h-40l-27-2-22-4-25-6-34-9-16-3h-5l-8 16-8 7h-15l-8-6-10-10-9-12-8-9-14-8-27-14-19-8-27-9-18-4-15-2h-39l-29 4-20 4-24 8-21 8-9 6-8 10-5 16-3 9-7 6-5 1-10-7-4-4-2-17-4-5-7 1-20 8-27 7-26 5-34 4-13 1h-63l-18-3-15-5-9-5-5-5-6-8-2-5v-8l5-11 7-8 14-9 16-8 26-9 16-8 10-7 4-6 2-6 1-20-3-54-1-29v-76l3-36 5-35 6-29 12-36 8-20 13-29 12-22 8-15 9-14 8-13 8-12 6-7 3-6 5-30 6-52 6-40 5-21 10-28 9-20 15-28 10-15 10-16 10-13 12-13 8-8 16-12 21-12 16-6 23-5 16-2h40l23 3 17 4 22 8 21 11 16 12 10 9 14 14 13 17 7 10 9 16 8 16 6 15 9 29 4 18 2 30 3 18 10 30 8 21 10 20 16 27 24 40 12 21 11 19 18 35 9 20 11 27 9 27 6 28 4 36 1 11 1 26v26l-1 45-2 32v22l2 5 3 1 8-7 9-9 10-14 11-17 8-13 9-17 6-15 5-15 6-25 3-21 2-24 2-44 1-58 2-47 6-74 5-48 7-47 8-42 8-32 11-32 10-24 14-29 10-18 8-12 10-14 10-11 7-8 15-15 11-9 14-10 16-9 16-6 15-3z" fill="#0E0B0D"/>
<path transform="translate(619,383)" d="m0 0h31l19 3 18 5 24 11 17 11 11 9 14 14 11 15 12 19 12 23 8 21 6 27 7 37 4 27 1 10v16l2 5 4 36 4 42 6 54 3 50 1 32 1 52v97l-1 49-2 51-3 44-4 41-3 26-2 17-5 9h-3l-8-5-4-5-7-15-7-21-9-41-8-32-15-91-7-50-10-50-5-30-7-26-10-29-10-19-10-14-10-9-14-8-11-3-10 1-16 8-13 9-13 13-8 9-9 14-9 15-22 46-8 18-8 19-5 15-9 24-8 26-8 25-14 57-8 44-3 22-2 21-1 3v24l-3 9h-4l-8-3-4-8-3-10-5-43-7-100-5-56-5-82-2-52v-74l4-86 6-93 4-36 6-25 8-24 8-19 10-19 14-21 10-13 9-11 11-11 8-7 14-10 15-9 19-8 19-5z" fill="#FEFEFE"/>
<path transform="translate(1297,375)" d="m0 0h15l16 4 10 7 7 7 8 13 5 14 2 14v14l-3 21-8 24-10 24-14 29-14 24-8 14-11 16-12 16-7 11-14 20-12 19-8 14-10 19-11 23-11 27-9 24-11 31-16 61-7 30-9 30-7 21-13 30-10 19-7 12-5 9-7 10-13 19-13 14-10 7h-3l2-5 5-6 4-13 10-23 8-26 6-29 6-42 4-40 6-84 4-58 4-70 3-37 4-28 7-34 10-36 6-18 11-25 8-16 10-19 14-20 11-13 11-12 14-12 13-8 16-8 13-5 12-3z" fill="#FEFEFE"/>
<path transform="translate(654,811)" d="m0 0 11 2 10 6 7 8 11 21 7 18 9 38 7 32 13 76 11 76 7 33 10 43 4 11v4l-5-1-7-4-9-4-16-8-21-7-25-6-17-3-11-1h-35l-20 3-21 5-25 10-17 7-19 10-4 2v-13l3-25 5-29 14-63 8-30 12-38 10-29 11-28 12-28 8-16 10-19 6-11 6-9 13-16 12-10 11-6z" fill="#FEFEFE"/>
<path transform="translate(413,697)" d="m0 0h2v36l-1 24v95l2 45 4 42 7 55 12 81 6 42 5 41 2 18 2 13-1 9-4 5-12 5-18 6-22 5-24 3-24 2-38 1-20-1-28-4-17-4-6-3-1-1v-6l5-5 19-8 22-8 23-10 10-7 11-12 6-11 3-14 1-9v-17l-4-72-1-47 1-41 4-43 6-40 8-36 7-23 10-27 13-28 8-16 10-19 8-11z" fill="#FEFEFE"/>
<path transform="translate(846,680)" d="m0 0 3 4 10 17 20 40 8 18 13 27 11 23 15 36 14 37 8 28 5 23 3 34v23l-3 43-2 25-1 22v33l2 19 6 26 6 17 8 11 6 8 11 11 6 12v3l-4 1h-14l-20-2-37-6-37-7-30-4-5-2-1-4v-12l6-50 3-45 4-123v-96l-2-52-3-40-6-52-3-33z" fill="#FEFEFE"/>
</svg>
